<svg width="267" height="48" viewBox="0 0 267 48" fill="none" xmlns="http://www.w3.org/2000/svg">
<path d="M38.8458 11.6516C33.3631 11.6516 28.995 7.10396 28.891 1.4912C28.8822 0.965847 28.8645 0.492854 28.8592 0H21.3927V21.4256C19.2501 20.068 16.7265 19.2845 14.0232 19.2845C6.27973 19.2845 0 25.7132 0 33.6423C0 41.573 6.27973 48 14.0249 48C14.2542 48 14.4851 47.9946 14.7144 47.9838C14.9437 47.9729 15.1712 47.9548 15.3987 47.9332C15.6244 47.9116 15.8501 47.8826 16.074 47.8502C16.2962 47.8177 16.5184 47.778 16.7406 47.7346C16.9611 47.6913 17.178 47.6407 17.3967 47.5865C17.6118 47.5324 17.8269 47.4729 18.0403 47.4079C18.2519 47.3428 18.4636 47.2743 18.6717 47.2002C18.8798 47.1263 19.0861 47.0468 19.2906 46.9637C19.4952 46.8807 19.6962 46.7922 19.8955 46.6983C20.0948 46.6063 20.2923 46.507 20.4863 46.4059C20.6803 46.3048 20.8725 46.1983 21.0611 46.0863C21.2498 45.9762 21.4367 45.8607 21.6202 45.7415C21.8036 45.6224 21.9835 45.4996 22.1616 45.3714C22.3397 45.2433 22.5143 45.1133 22.6853 44.9761C22.8563 44.8407 23.0256 44.7017 23.1914 44.5572C23.3572 44.4146 23.5194 44.2666 23.6782 44.1167C23.8369 43.9669 23.9921 43.8116 24.1437 43.6545C24.2954 43.4975 24.4435 43.3351 24.5881 43.1708C24.7327 43.0065 24.8738 42.8385 25.0113 42.6671C25.1489 42.4956 25.2811 42.3204 25.4117 42.1435C25.5404 41.9666 25.6674 41.7843 25.7873 41.6019C25.909 41.4177 26.0253 41.2319 26.1382 41.0423C26.251 40.8527 26.3604 40.6596 26.4644 40.4646C26.5685 40.2696 26.669 40.071 26.7642 39.8706C26.8594 39.6703 26.9512 39.4663 27.0376 39.2604C27.124 39.0546 27.2069 38.847 27.2827 38.6358C27.3603 38.4246 27.4326 38.2115 27.4996 37.9985C27.5666 37.7836 27.6301 37.5652 27.6883 37.3468C27.7465 37.1265 27.7994 36.9063 27.847 36.6824C27.8946 36.4585 27.9369 36.2329 27.9739 36.0072C28.011 35.7798 28.0427 35.5505 28.0692 35.3212C28.0939 35.11 28.115 34.9023 28.115 34.6893C28.115 34.6496 28.115 34.6081 28.115 34.5684C28.115 34.5178 28.115 34.4655 28.115 34.4149C28.115 34.3535 28.115 34.2921 28.115 34.2308C28.115 34.1585 28.115 34.0881 28.115 34.0159C28.115 33.9347 28.115 33.8535 28.115 33.774C28.115 33.6838 28.115 33.5935 28.115 33.505C28.115 33.4076 28.115 33.3083 28.115 33.2108C28.115 33.1043 28.115 32.9977 28.115 32.8912C28.115 32.7775 28.115 32.6638 28.115 32.5482C28.115 32.4273 28.115 32.3063 28.115 32.1853C28.115 32.0572 28.115 31.929 28.115 31.8008C28.115 31.6672 28.115 31.5318 28.115 31.3983C28.115 31.2574 28.115 31.1184 28.115 30.9776C28.115 30.8332 28.115 30.6869 28.115 30.5425C28.115 30.3927 28.115 30.2428 28.115 30.0912C28.115 29.9359 28.115 29.7825 28.115 29.6272C28.115 29.4684 28.115 29.3095 28.115 29.1506C28.115 28.9881 28.115 28.8256 28.115 28.6649C28.115 28.5007 28.115 28.3346 28.115 28.1703C28.115 28.0024 28.115 27.8345 28.115 27.6666C28.115 27.4969 28.115 27.3272 28.115 27.1575C28.115 26.986 28.115 26.8145 28.115 26.643C28.115 26.4697 28.115 26.2982 28.115 26.1249C28.115 25.9516 28.115 25.7783 28.115 25.6049C28.115 25.4316 28.115 25.2565 28.115 25.0832C28.115 24.9099 28.115 24.7366 28.115 24.5615C28.115 24.3881 28.115 24.2148 28.115 24.0415C28.115 23.87 28.115 23.6967 28.115 23.5252C28.115 23.3555 28.115 23.184 28.115 23.0143C28.115 22.8464 28.115 22.6767 28.115 22.5088C28.115 22.3427 28.115 22.1767 28.115 22.0105C28.115 21.8481 28.115 21.6838 28.115 21.5213C28.115 21.3606 28.115 21.2017 28.115 21.0411C28.115 20.8858 28.115 20.7287 28.115 20.5735C28.115 20.4218 28.115 20.2702 28.115 20.1185C28.115 19.9705 28.115 19.8243 28.115 19.6762C28.115 19.5336 28.115 19.3928 28.115 19.2502C28.115 19.113 28.115 18.9776 28.115 18.8404C28.115 18.7104 28.115 18.5804 28.115 18.4504C28.115 18.3259 28.115 18.2031 28.115 18.0785C28.115 17.9612 28.115 17.8457 28.115 17.7283C28.115 17.6182 28.115 17.5098 28.115 17.3997C28.115 17.2986 28.115 17.1975 28.115 17.0964C28.115 17.0025 28.115 16.9105 28.115 16.8166C28.115 16.7318 28.115 16.6487 28.115 16.5639C28.115 16.4898 28.115 16.414 28.115 16.34C28.115 16.275 28.115 16.21 28.115 16.145C28.115 16.0908 28.115 16.0349 28.115 15.9807C28.115 15.9356 28.115 15.8923 28.115 15.8471C28.115 15.8146 28.115 15.7804 28.115 15.7479C28.115 15.7262 28.115 15.7045 28.115 15.6828C28.115 15.6738 28.115 15.663 28.115 15.6521C31.083 18.0117 34.8056 19.4163 38.844 19.4163C39.7522 19.4163 40.6445 19.3459 41.5174 19.2068V11.2779C40.6692 11.5216 39.7716 11.6516 38.8458 11.6516ZM14.203 40.2443L7.75402 32.6999H11.4396V27.0401H16.9664V32.6999H20.6521L14.203 40.2443Z" fill="url(#paint0_linear_100_870)"/>
<path d="M51.8621 26.6582C51.8621 33.5782 56.2715 38.1782 61.8227 38.1782C65.2481 38.1782 67.6891 36.5782 68.9883 34.5382V37.8182H74.5788V8.21819H68.9883V18.7382C67.4922 16.6582 64.7363 15.2982 61.862 15.2982C56.2715 15.2982 51.8621 19.7382 51.8621 26.6582ZM69.0277 26.7382C69.0277 30.9382 66.2718 33.2582 63.24 33.2582C60.2872 33.2582 57.492 30.8582 57.492 26.6582C57.492 22.4582 60.2872 20.2182 63.24 20.2182C66.2718 20.2182 69.0277 22.5382 69.0277 26.7382ZM101.025 26.7382C101.025 19.7382 96.1035 15.2982 89.8043 15.2982C83.5051 15.2982 78.5838 19.7382 78.5838 26.7382C78.5838 33.6982 83.3476 38.1782 89.6468 38.1782C95.9853 38.1782 101.025 33.6982 101.025 26.7382ZM84.1744 26.7382C84.1744 22.2982 86.8121 20.1782 89.7255 20.1782C92.6389 20.1782 95.3554 22.2982 95.3554 26.7382C95.3554 31.1382 92.5602 33.2982 89.6468 33.2982C86.694 33.2982 84.1744 31.1382 84.1744 26.7382ZM109.044 37.8182H115.028L119.005 22.3382L122.981 37.8182H128.926L135.304 15.6582H130.028L126.17 32.4982L122.075 15.6582H116.249L112.076 32.5382L108.217 15.6582H102.627L109.044 37.8182ZM153.561 37.8182H159.073V24.8182C159.073 18.6982 155.451 15.3382 150.372 15.3382C147.577 15.3382 145.215 16.5382 143.798 18.4182V15.6582H138.286V37.8182H143.798V25.5782C143.798 22.0182 145.727 20.0982 148.719 20.0982C151.632 20.0982 153.561 22.0182 153.561 25.5782V37.8182ZM165.181 30.9382C165.181 36.0182 167.977 37.8182 172.15 37.8182H175.614V33.0982H173.055C171.323 33.0982 170.732 32.4582 170.732 30.9782V20.2582H175.614V15.6582H170.732V10.1782H165.181V15.6582H162.583V20.2582H165.181V30.9382ZM179.579 37.8182H185.09V15.6582H179.579V37.8182ZM182.374 13.0182C184.303 13.0182 185.76 11.5782 185.76 9.73819C185.76 7.89819 184.303 6.45819 182.374 6.45819C180.405 6.45819 178.988 7.89819 178.988 9.73819C178.988 11.5782 180.405 13.0182 182.374 13.0182ZM190.536 37.8182H196.048V28.3782L203.45 37.8182H210.615L200.93 26.7782L210.536 15.6582H203.371L196.048 25.0582V8.21819H190.536V37.8182ZM219.315 34.8182C219.315 32.9782 217.898 31.5382 215.969 31.5382C213.961 31.5382 212.543 32.9782 212.543 34.8182C212.543 36.6582 213.961 38.0982 215.969 38.0982C217.898 38.0982 219.315 36.6582 219.315 34.8182ZM224.621 30.9382C224.621 36.0182 227.416 37.8182 231.589 37.8182H235.054V33.0982H232.495C230.762 33.0982 230.172 32.4582 230.172 30.9782V20.2582H235.054V15.6582H230.172V10.1782H224.621V15.6582H222.022V20.2582H224.621V30.9382ZM260.081 26.7382C260.081 19.7382 255.16 15.2982 248.86 15.2982C242.561 15.2982 237.64 19.7382 237.64 26.7382C237.64 33.6982 242.404 38.1782 248.703 38.1782C255.041 38.1782 260.081 33.6982 260.081 26.7382ZM243.23 26.7382C243.23 22.2982 245.868 20.1782 248.782 20.1782C251.695 20.1782 254.412 22.2982 254.412 26.7382C254.412 31.1382 251.616 33.2982 248.703 33.2982C245.75 33.2982 243.23 31.1382 243.23 26.7382Z" fill="url(#paint1_linear_100_870)"/>
<defs>
<linearGradient id="paint0_linear_100_870" x1="-5.0672e-07" y1="56.7273" x2="48.1204" y2="0.753455" gradientUnits="userSpaceOnUse">
<stop offset="0.197917" stop-color="#2E2BFF"/>
<stop offset="0.50817" stop-color="#FF77CF"/>
<stop offset="0.770833" stop-color="#FFA975"/>
</linearGradient>
<linearGradient id="paint1_linear_100_870" x1="62.5967" y1="64" x2="276.143" y2="32.8974" gradientUnits="userSpaceOnUse">
<stop stop-color="#5554DA"/>
<stop offset="0.411458" stop-color="#FF72D9"/>
<stop offset="1" stop-color="#FFB955"/>
</linearGradient>
</defs>
</svg>
