<?xml version="1.0" encoding="UTF-8" standalone="no"?>
<svg
   viewBox="0 0 604.31677 470.24182"
   version="1.1"
   id="svg4"
   sodipodi:docname="link-gray.svg"
   inkscape:version="1.1 (c68e22c387, 2021-05-23)"
   width="604.31677"
   height="470.24182"
   xmlns:inkscape="http://www.inkscape.org/namespaces/inkscape"
   xmlns:sodipodi="http://sodipodi.sourceforge.net/DTD/sodipodi-0.dtd"
   xmlns="http://www.w3.org/2000/svg"
   xmlns:svg="http://www.w3.org/2000/svg">
  <defs
     id="defs8" />
  <sodipodi:namedview
     id="namedview6"
     pagecolor="#ffffff"
     bordercolor="#666666"
     borderopacity="1.0"
     inkscape:pageshadow="2"
     inkscape:pageopacity="0.0"
     inkscape:pagecheckerboard="0"
     showgrid="false"
     inkscape:zoom="1.4609375"
     inkscape:cx="302.20321"
     inkscape:cy="197.47594"
     inkscape:window-width="1920"
     inkscape:window-height="1017"
     inkscape:window-x="-8"
     inkscape:window-y="-8"
     inkscape:window-maximized="1"
     inkscape:current-layer="svg4"
     fit-margin-top="0"
     fit-margin-left="0"
     fit-margin-right="0"
     fit-margin-bottom="0" />
  <!--! Font Awesome Pro 6.0.0 by @fontawesome - https://fontawesome.com License - https://fontawesome.com/license (Commercial License) Copyright 2022 Fonticons, Inc. -->
  <path
     d="m 154.64175,110.21916 c 55.6,-55.59 148,-55.59 203.6,0 50,50 57.4,129.7 16.3,187.2 l -1.1,1.6 c -10.3,14.3 -30.3,17.7 -44.6,7.4 -14.4,-10.3 -17.8,-30.3 -7.5,-44.6 l 1.1,-1.6 c 22.9,-32.1 19.3,-76 -8.6,-103.9 -31.4,-31.4 -82.5,-31.4 -114,0 l -112.2,112.3 c -31.51,30.6 -31.51,82.5 0,114 27.8,27.9 71.8,31.5 95.8,14.35 24,-17.15 44,-13.85 54.2,0.55 10.3,14.4 7,34.4 -7.4,44.7 l -1.6,1.1 c -58.4,41.1 -136.3,34.5 -186.29,-15.4 -56.469,-56.5 -56.469,-148.1 0,-204.5 z m 295,248.9 c -56.5,56.5 -148,56.5 -204.5,0 -50,-50 -56.5,-128.8 -15.4,-186.3 l 1.1,-1.6 c 9.4,-14.3 29.4,-17.7 44.6,-7.4 14.4,9.4 17.8,29.4 7.5,44.6 l -1.1,1.6 c -22.9,31.2 -19.3,76 8.6,103.9 31.4,31.4 82.5,31.4 114,0 l 112.2,-112.3 c 31.5,-31.5 31.5,-83.4 0,-114 -27.8,-27.87 -71.8,-31.51 -95.8,-14.355 -24,17.155 -44,12.955 -54.2,-0.565 -10.3,-14.38 -7,-34.37 7.4,-44.64 l 1.6,-1.12 c 57.5,-41.089 136.3,-34.5699998 186.3,15.42 56.5,56.46 56.5,148.06 0,204.46 z"
     id="path2"
     style="fill:#6b7280;fill-opacity:1"
     sodipodi:nodetypes="cccccccsccccccccccsscccccscccccccccs" />
</svg>
