<svg width="60" height="60" viewBox="0 0 60 60" fill="none" xmlns="http://www.w3.org/2000/svg">
<circle cx="30" cy="30" r="30" fill="#FDC228"/>
<path fill-rule="evenodd" clip-rule="evenodd" d="M24.113 22.5H29.9051C32.3271 22.5 34.0181 24.169 34.0181 26.5609V33.4391C34.0181 35.831 32.3271 37.5 29.9051 37.5H24.113C21.691 37.5 20 35.831 20 33.4391V26.5609C20 24.169 21.691 22.5 24.113 22.5ZM37.958 24.879C38.397 24.6556 38.912 24.679 39.331 24.9429C39.75 25.2059 40 25.6627 40 26.1622V33.8384C40 34.3389 39.75 34.7947 39.331 35.0577C39.102 35.2008 38.846 35.2739 38.588 35.2739C38.373 35.2739 38.158 35.2231 37.957 35.1206L36.476 34.3734C35.928 34.0952 35.588 33.5369 35.588 32.9165V27.083C35.588 26.4617 35.928 25.9034 36.476 25.6272L37.958 24.879Z" fill="white"/>
</svg>
