<svg width="44" height="44" viewBox="0 0 44 44" fill="none" xmlns="http://www.w3.org/2000/svg">
<circle cx="22" cy="22" r="22" fill="#9CC576"/>
<path fill-rule="evenodd" clip-rule="evenodd" d="M11.3411 22.0062C11.3411 16.123 16.1253 11.3411 22 11.3411C27.8748 11.3411 32.6589 16.123 32.6589 22.0062C32.6589 27.8771 27.8748 32.6589 22 32.6589C16.1253 32.6589 11.3411 27.8771 11.3411 22.0062ZM25.9096 23.0849C26.0228 22.9718 26.1669 22.797 26.1977 22.7559C26.3623 22.5399 26.4446 22.2725 26.4446 22.0062C26.4446 21.7069 26.352 21.4293 26.1771 21.203C26.1628 21.1887 26.1347 21.1582 26.0982 21.1184C26.0297 21.0439 25.9315 20.9369 25.8376 20.8431C24.994 19.9382 22.7922 18.4573 21.6399 18.0048C21.465 17.9339 21.0226 17.7786 20.786 17.7683C20.5596 17.7683 20.3435 17.8197 20.1378 17.9226C19.8806 18.0665 19.6748 18.2928 19.5616 18.5602C19.4896 18.7453 19.3764 19.3006 19.3764 19.3109C19.2633 19.9176 19.2015 20.9048 19.2015 21.9949C19.2015 23.0345 19.2633 23.9796 19.3559 24.5966C19.3584 24.5992 19.3672 24.6433 19.381 24.7118C19.4228 24.9203 19.5099 25.3544 19.6028 25.5324C19.8291 25.9643 20.2715 26.2317 20.7448 26.2317H20.786C21.0946 26.2214 21.7428 25.954 21.7428 25.9438C22.8334 25.4913 24.9837 24.0824 25.8479 23.1466L25.9096 23.0849Z" fill="white"/>
</svg>
