<svg width="78" height="78" viewBox="0 0 78 78" fill="none" xmlns="http://www.w3.org/2000/svg">
<circle cx="39" cy="39" r="39" fill="#F64561"/>
<path d="M47.6848 30.7758C47.4995 30.6787 47.319 30.5721 47.1441 30.4567C46.6356 30.1157 46.1693 29.7139 45.7554 29.26C44.7198 28.0582 44.333 26.8389 44.1905 25.9852H44.1962C44.0772 25.2766 44.1264 24.8182 44.1339 24.8182H39.4168V43.3179C39.4168 43.5663 39.4168 43.8117 39.4065 44.0543C39.4065 44.0845 39.4036 44.1124 39.4019 44.1449C39.4019 44.1582 39.4019 44.1721 39.399 44.1861V44.1965C39.3493 44.8603 39.1395 45.5015 38.7881 46.0637C38.4367 46.6259 37.9545 47.092 37.3838 47.4208C36.789 47.764 36.1164 47.944 35.4321 47.9431C33.2343 47.9431 31.4531 46.1255 31.4531 43.8808C31.4531 41.6361 33.2343 39.8185 35.4321 39.8185C35.8481 39.8181 36.2616 39.8845 36.6571 40.0152L36.6629 35.144C35.462 34.9866 34.2421 35.0834 33.0801 35.4282C31.918 35.773 30.839 36.3583 29.9111 37.1473C29.098 37.8637 28.4145 38.7186 27.8913 39.6734C27.6922 40.0216 26.9409 41.4208 26.8499 43.6916C26.7927 44.9805 27.1743 46.3159 27.3563 46.8678V46.8794C27.4707 47.2043 27.9142 48.3134 28.6368 49.2483C29.2196 49.9982 29.908 50.657 30.6801 51.2034V51.1918L30.6915 51.2034C32.9751 52.7772 35.507 52.6739 35.507 52.6739C35.9453 52.6559 37.4136 52.6739 39.0809 51.8725C40.9302 50.984 41.983 49.6603 41.983 49.6603C42.6556 48.8694 43.1904 47.968 43.5645 46.9948C43.9914 45.8568 44.1339 44.4919 44.1339 43.9464V34.1319C44.1911 34.1667 44.9532 34.678 44.9532 34.678C44.9532 34.678 46.0512 35.3918 47.7644 35.8566C48.9934 36.1874 50.6493 36.257 50.6493 36.257V31.5076C50.0691 31.5715 48.891 31.3858 47.6848 30.7758Z" fill="white"/>
</svg>
