<svg width="58" height="58" viewBox="0 0 58 58" fill="none" xmlns="http://www.w3.org/2000/svg">
<circle cx="29" cy="29" r="29" fill="#7668FB"/>
<path fill-rule="evenodd" clip-rule="evenodd" d="M30.3571 23.4506C30.3068 22.9642 30.2543 22.4596 30.1254 21.9561C29.7741 20.7515 28.801 20 27.7576 20C27.1757 19.9979 26.4395 20.3564 26.0222 20.7193L22.5629 23.617H20.7519C19.4192 23.617 18.3475 24.6444 18.1451 26.127C17.9732 27.5506 17.9312 30.2379 18.1451 31.8042C18.3307 33.3706 19.3542 34.383 20.7519 34.383H22.5629L26.0893 37.3236C26.4511 37.6382 27.0897 37.9989 27.6769 37.9989C27.7146 38 27.7482 38 27.7817 38C28.845 38 29.7814 37.2206 30.1327 36.0192C30.265 35.5113 30.3114 35.0352 30.3563 34.5752L30.3571 34.5666L30.4043 34.1082C30.5846 32.6213 30.5846 25.3691 30.4043 23.8929L30.3571 23.4506ZM34.4066 23.4946C34.1182 23.0694 33.5467 22.9631 33.1283 23.2584C32.7141 23.5558 32.6114 24.142 32.8997 24.566C33.7019 25.7481 34.1434 27.322 34.1434 29C34.1434 30.677 33.7019 32.2519 32.8997 33.434C32.6114 33.858 32.7141 34.4442 33.1294 34.7416C33.2846 34.8511 33.466 34.9091 33.6526 34.9091C33.9536 34.9091 34.2346 34.7577 34.4066 34.5054C35.4195 33.0131 35.9784 31.0581 35.9784 29C35.9784 26.9419 35.4195 24.9869 34.4066 23.4946ZM36.2901 20.2211C36.7074 19.9248 37.281 20.0332 37.5673 20.4573C39.136 22.7666 40 25.8016 40 28.9999C40 32.2003 39.136 35.2343 37.5673 37.5436C37.3963 37.7959 37.1143 37.9473 36.8133 37.9473C36.6267 37.9473 36.4463 37.8893 36.2911 37.7798C35.8759 37.4824 35.7731 36.8973 36.0604 36.4722C37.4173 34.4731 38.165 31.8192 38.165 28.9999C38.165 26.1817 37.4173 23.5278 36.0604 21.5287C35.7731 21.1046 35.8759 20.5185 36.2901 20.2211Z" fill="white"/>
</svg>
